HIERARCHY
ROOT Hips
{
    OFFSET 0.000000 0.000000 0.000000
    CHANNELS 6 Xposition Yposition Zposition Zrotation Xrotation Yrotation
    JOINT Spine
    {
        OFFSET 0.000005 10.316801 0.000003
        CHANNELS 3 Zrotation Xrotation Yrotation
        JOINT Spine1
        {
            OFFSET 0.000001 26.008713 -0.000000
            CHANNELS 3 Zrotation Xrotation Yrotation
            JOINT Neck
            {
                OFFSET -0.000003 24.799356 -0.000002
                CHANNELS 3 Zrotation Xrotation Yrotation
                JOINT Head
                {
                    OFFSET 0.000020 14.500551 2.035182
                    CHANNELS 3 Zrotation Xrotation Yrotation
                    End Site
                    {
                        OFFSET 0.000000 20.351660 0.000000
                    }
                }
            }
            JOINT LeftShoulder
            {
                OFFSET 4.036561 20.304798 -0.371914
                CHANNELS 3 Zrotation Xrotation Yrotation
                JOINT LeftArm
                {
                    OFFSET 12.502599 0.000005 -0.000001
                    CHANNELS 3 Zrotation Xrotation Yrotation
                    JOINT LeftForeArm
                    {
                        OFFSET 31.806910 0.000001 -0.000001
                        CHANNELS 3 Zrotation Xrotation Yrotation
                        JOINT LeftHand
                        {
                            OFFSET 24.843203 -0.000000 -0.000007
                            CHANNELS 3 Zrotation Xrotation Yrotation
                            JOINT LeftHandThumb1
                            {
                                OFFSET 2.126742 -2.416762 3.383460
                                CHANNELS 3 Zrotation Xrotation Yrotation
                                JOINT LeftHandThumb2
                                {
                                    OFFSET 3.212131 -0.000002 -0.000001
                                    CHANNELS 3 Zrotation Xrotation Yrotation
                                    JOINT LeftHandThumb3
                                    {
                                        OFFSET 2.745434 -0.000004 0.000001
                                        CHANNELS 3 Zrotation Xrotation Yrotation
                                        End Site
                                        {
                                            OFFSET 2.793713 0.000000 0.000000
                                        }
                                    }
                                }
                            }
                            JOINT LeftHandIndex1
                            {
                                OFFSET 8.700332 -0.000004 3.383458
                                CHANNELS 3 Zrotation Xrotation Yrotation
                                JOINT LeftHandIndex2
                                {
                                    OFFSET 4.833528 -0.000004 -0.000002
                                    CHANNELS 3 Zrotation Xrotation Yrotation
                                    JOINT LeftHandIndex3
                                    {
                                        OFFSET 2.416752 -0.000002 0.000000
                                        CHANNELS 3 Zrotation Xrotation Yrotation
                                        End Site
                                        {
                                            OFFSET 2.459254 0.000000 0.000000
                                        }
                                    }
                                }
                            }
                            JOINT LeftHandMiddle1
                            {
                                OFFSET 8.700323 0.000003 1.121382
                                CHANNELS 3 Zrotation Xrotation Yrotation
                                JOINT LeftHandMiddle2
                                {
                                    OFFSET 5.316860 -0.000001 -0.000002
                                    CHANNELS 3 Zrotation Xrotation Yrotation
                                    JOINT LeftHandMiddle3
                                    {
                                        OFFSET 2.900108 -0.000000 0.000000
                                        CHANNELS 3 Zrotation Xrotation Yrotation
                                        End Site
                                        {
                                            OFFSET 2.951103 0.000000 0.000000
                                        }
                                    }
                                }
                            }
                            JOINT LeftHandRing1
                            {
                                OFFSET 8.216992 0.000004 -1.121380
                                CHANNELS 3 Zrotation Xrotation Yrotation
                                JOINT LeftHandRing2
                                {
                                    OFFSET 4.833528 -0.000004 -0.000004
                                    CHANNELS 3 Zrotation Xrotation Yrotation
                                    JOINT LeftHandRing3
                                    {
                                        OFFSET 2.416752 -0.000002 -0.000001
                                        CHANNELS 3 Zrotation Xrotation Yrotation
                                        End Site
                                        {
                                            OFFSET 2.459254 0.000000 0.000000
                                        }
                                    }
                                }
                            }
                            JOINT LeftHandPinky1
                            {
                                OFFSET 7.733627 -0.000001 -3.383464
                                CHANNELS 3 Zrotation Xrotation Yrotation
                                JOINT LeftHandPinky2
                                {
                                    OFFSET 3.866818 0.000003 0.000001
                                    CHANNELS 3 Zrotation Xrotation Yrotation
                                    JOINT LeftHandPinky3
                                    {
                                        OFFSET 1.933421 -0.000004 -0.000004
                                        CHANNELS 3 Zrotation Xrotation Yrotation
                                        End Site
                                        {
                                            OFFSET 1.967405 0.000000 0.000000
                                        }
                                    }
                                }
                            }
                        }
                    }
                }
            }
            JOINT RightShoulder
            {
                OFFSET -4.036570 20.304804 -0.371909
                CHANNELS 3 Zrotation Xrotation Yrotation
                JOINT RightArm
                {
                    OFFSET -12.502611 -0.000002 -0.000006
                    CHANNELS 3 Zrotation Xrotation Yrotation
                    JOINT RightForeArm
                    {
                        OFFSET -31.806902 0.000000 -0.000005
                        CHANNELS 3 Zrotation Xrotation Yrotation
                        JOINT RightHand
                        {
                            OFFSET -24.843195 0.000003 -0.000004
                            CHANNELS 3 Zrotation Xrotation Yrotation
                            JOINT RightHandThumb1
                            {
                                OFFSET -2.126753 -2.416759 3.383456
                                CHANNELS 3 Zrotation Xrotation Yrotation
                                JOINT RightHandThumb2
                                {
                                    OFFSET -3.212128 -0.000001 0.000004
                                    CHANNELS 3 Zrotation Xrotation Yrotation
                                    JOINT RightHandThumb3
                                    {
                                        OFFSET -2.745447 -0.000007 -0.000007
                                        CHANNELS 3 Zrotation Xrotation Yrotation
                                        End Site
                                        {
                                            OFFSET -2.793713 0.000000 0.000000
                                        }
                                    }
                                }
                            }
                            JOINT RightHandIndex1
                            {
                                OFFSET -8.700329 -0.000002 3.383458
                                CHANNELS 3 Zrotation Xrotation Yrotation
                                JOINT RightHandIndex2
                                {
                                    OFFSET -4.833517 -0.000003 -0.000001
                                    CHANNELS 3 Zrotation Xrotation Yrotation
                                    JOINT RightHandIndex3
                                    {
                                        OFFSET -2.416758 -0.000002 -0.000001
                                        CHANNELS 3 Zrotation Xrotation Yrotation
                                        End Site
                                        {
                                            OFFSET -2.459254 0.000000 0.000000
                                        }
                                    }
                                }
                            }
                            JOINT RightHandMiddle1
                            {
                                OFFSET -8.700332 0.000004 1.121380
                                CHANNELS 3 Zrotation Xrotation Yrotation
                                JOINT RightHandMiddle2
                                {
                                    OFFSET -5.316864 -0.000003 0.000007
                                    CHANNELS 3 Zrotation Xrotation Yrotation
                                    JOINT RightHandMiddle3
                                    {
                                        OFFSET -2.900104 0.000000 0.000006
                                        CHANNELS 3 Zrotation Xrotation Yrotation
                                        End Site
                                        {
                                            OFFSET -2.951103 0.000000 0.000000
                                        }
                                    }
                                }
                            }
                            JOINT RightHandRing1
                            {
                                OFFSET -8.216980 -0.000005 -1.121383
                                CHANNELS 3 Zrotation Xrotation Yrotation
                                JOINT RightHandRing2
                                {
                                    OFFSET -4.833517 -0.000003 -0.000001
                                    CHANNELS 3 Zrotation Xrotation Yrotation
                                    JOINT RightHandRing3
                                    {
                                        OFFSET -2.416758 -0.000002 -0.000001
                                        CHANNELS 3 Zrotation Xrotation Yrotation
                                        End Site
                                        {
                                            OFFSET -2.459254 0.000000 0.000000
                                        }
                                    }
                                }
                            }
                            JOINT RightHandPinky1
                            {
                                OFFSET -7.733637 0.000001 -3.383470
                                CHANNELS 3 Zrotation Xrotation Yrotation
                                JOINT RightHandPinky2
                                {
                                    OFFSET -3.866809 -0.000001 0.000001
                                    CHANNELS 3 Zrotation Xrotation Yrotation
                                    JOINT RightHandPinky3
                                    {
                                        OFFSET -1.933413 -0.000002 -0.000008
                                        CHANNELS 3 Zrotation Xrotation Yrotation
                                        End Site
                                        {
                                            OFFSET -1.967405 0.000000 0.000000
                                        }
                                    }
                                }
                            }
                        }
                    }
                }
            }
        }
    }
    JOINT LeftUpLeg
    {
        OFFSET 10.175808 -0.000002 0.000006
        CHANNELS 3 Zrotation Xrotation Yrotation
        JOINT LeftLeg
        {
            OFFSET -0.000002 -42.882900 -0.000002
            CHANNELS 3 Zrotation Xrotation Yrotation
            JOINT LeftFoot
            {
                OFFSET -0.000004 -39.006802 -0.000003
                CHANNELS 3 Zrotation Xrotation Yrotation
                JOINT LeftToeBase
                {
                    OFFSET 0.000001 -6.614292 15.263705
                    CHANNELS 3 Zrotation Xrotation Yrotation
                    End Site
                    {
                        OFFSET 0.000000 0.000000 4.070332
                    }
                }
            }
        }
    }
    JOINT RightUpLeg
    {
        OFFSET -10.175808 0.000002 -0.000006
        CHANNELS 3 Zrotation Xrotation Yrotation
        JOINT RightLeg
        {
            OFFSET -0.000002 -42.882900 -0.000002
            CHANNELS 3 Zrotation Xrotation Yrotation
            JOINT RightFoot
            {
                OFFSET -0.000003 -39.006798 -0.000001
                CHANNELS 3 Zrotation Xrotation Yrotation
                JOINT RightToeBase
                {
                    OFFSET -0.000006 -6.614290 15.263698
                    CHANNELS 3 Zrotation Xrotation Yrotation
                    End Site
                    {
                        OFFSET 0.000000 0.000000 4.070332
                    }
                }
            }
        }
    }
}
MOTION
Frames:    5
Frame Time:    0.002778
13.037312    80.980949    215.251328    2.638344    -1.956199    -2.906204    0.115863    8.524951    3.693305    0.579313    8.524539    3.624603    4.693696    2.839722    -1.624545    4.693699    2.839725    -1.624544    -3.993423    -0.169372    -0.987383    -53.096321    20.150764    -22.440336    -7.624724    -4.114034    -136.744675    -3.380561    -0.391426    6.215202    47.448227    38.866413    -34.355057    -35.000015    -0.000003    -0.000000    -0.000000    0.000000    -0.000000    0.000010    9.999994    -0.000001    -0.000000    0.000000    -0.000000    -0.000000    0.000000    -0.000000    -0.000000    0.000000    -0.000000    -0.000000    0.000000    -0.000000    -0.000000    0.000000    -0.000000    -0.000000    0.000000    -0.000000    -0.000000    0.000000    -0.000000    -0.000000    0.000000    -0.000000    -0.000004    -9.999994    -0.000002    -0.000000    0.000000    -0.000000    -0.000000    0.000000    -0.000000    0.065269    -0.387423    6.032245    45.691372    -2.281575    37.511215    -34.429092    -15.997949    83.687431    5.908911    -4.644102    -40.646454    -47.448193    38.866394    34.355038    35.000027    -0.000001    -0.000009    -0.000000    0.000000    -0.000000    -0.000000    9.999993    -0.000000    -0.000000    0.000000    -0.000000    -0.000000    0.000000    -0.000000    -0.000000    0.000000    -0.000000    -0.000000    0.000000    -0.000000    -0.000000    0.000000    -0.000000    -0.000000    0.000000    -0.000000    -0.000000    0.000000    -0.000000    -0.000000    0.000000    -0.000000    0.000002    -9.999997    0.000007    -0.000000    0.000000    -0.000000    -0.000000    0.000000    -0.000000    11.347175    -27.863768    -1.664745    -0.000002    66.995003    0.000002    -21.021383    -38.304535    -12.544709    0.000000    -0.549198    -0.000000    -25.191034    -27.471201    -8.480731    0.000007    68.531883    -0.000010    22.306511    -32.418484    -4.121076    -0.000000    1.035241    0.000003    
13.049516    80.943390    215.270752    2.594405    -2.023962    -3.039465    0.113349    8.531853    3.688712    0.566743    8.531460    3.621449    4.697143    2.820913    -1.551335    4.697144    2.820919    -1.551336    -3.994267    -0.162641    -0.982836    -53.157158    20.160263    -22.358261    -7.650711    -4.087556    -136.690201    -3.365351    -0.391000    6.228183    47.448196    38.866402    -34.355049    -35.000019    -0.000002    0.000002    -0.000000    0.000000    -0.000000    -0.000007    9.999997    0.000001    -0.000000    0.000000    -0.000000    -0.000000    0.000000    -0.000000    -0.000000    0.000000    -0.000000    -0.000000    0.000000    -0.000000    -0.000000    0.000000    -0.000000    -0.000000    0.000000    -0.000000    -0.000000    0.000000    -0.000000    -0.000000    0.000000    -0.000000    -0.000003    -9.999994    0.000003    -0.000000    0.000000    -0.000000    -0.000000    0.000000    -0.000000    0.062846    -0.344555    6.012519    45.718246    -2.052060    37.314571    -34.154285    -15.915196    83.628220    5.765932    -4.520353    -40.625813    -47.448185    38.866394    34.355030    35.000019    0.000006    0.000006    -0.000000    0.000000    -0.000000    -0.000002    9.999991    0.000003    -0.000000    0.000000    -0.000000    -0.000000    0.000000    -0.000000    -0.000000    0.000000    -0.000000    -0.000000    0.000000    -0.000000    -0.000000    0.000000    -0.000000    -0.000000    0.000000    -0.000000    -0.000000    0.000000    -0.000000    -0.000000    0.000000    -0.000000    0.000000    -9.999992    0.000001    -0.000000    0.000000    -0.000000    -0.000000    0.000000    -0.000000    11.366721    -27.796181    -1.670628    0.000005    67.127579    -0.000004    -20.962091    -38.433193    -12.430360    0.000000    -0.550181    0.000001    -25.148167    -27.497534    -8.422334    0.000002    68.599739    0.000000    22.270555    -32.399380    -4.057611    0.000000    1.027299    -0.000008    
13.066739    80.909134    215.292114    2.546197    -2.090930    -3.171692    0.112221    8.536123    3.677653    0.561103    8.535741    3.611025    4.698240    2.808288    -1.473523    4.698237    2.808281    -1.473524    -4.001921    -0.146698    -0.976465    -53.210201    20.176403    -22.278418    -7.675282    -4.050137    -136.643768    -3.354035    -0.390592    6.233529    47.448208    38.866398    -34.355045    -35.000027    0.000001    -0.000004    -0.000000    0.000000    -0.000000    -0.000000    9.999993    -0.000000    -0.000000    0.000000    -0.000000    -0.000000    0.000000    -0.000000    -0.000000    0.000000    -0.000000    -0.000000    0.000000    -0.000000    -0.000000    0.000000    -0.000000    -0.000000    0.000000    -0.000000    -0.000000    0.000000    -0.000000    -0.000000    0.000000    -0.000000    -0.000000    -9.999999    -0.000003    -0.000000    0.000000    -0.000000    -0.000000    0.000000    -0.000000    0.060158    -0.311141    5.973981    45.758076    -1.852659    37.108212    -33.921631    -15.857431    83.527115    5.650742    -4.423059    -40.620571    -47.448212    38.866402    34.355045    35.000027    -0.000001    -0.000002    -0.000000    0.000000    -0.000000    0.000002    9.999998    0.000002    -0.000000    0.000000    -0.000000    -0.000000    0.000000    -0.000000    -0.000000    0.000000    -0.000000    -0.000000    0.000000    -0.000000    -0.000000    0.000000    -0.000000    -0.000000    0.000000    -0.000000    -0.000000    0.000000    -0.000000    -0.000000    0.000000    -0.000000    -0.000004    -9.999991    -0.000010    -0.000000    0.000000    -0.000000    -0.000000    0.000000    -0.000000    11.386003    -27.722042    -1.675364    -0.000008    67.252640    0.000005    -20.913490    -38.565018    -12.320523    0.000000    -0.559219    0.000000    -25.102430    -27.518131    -8.359193    -0.000003    68.658989    0.000005    22.244820    -32.376919    -3.988629    0.000000    1.030087    -0.000004    
13.079986    80.878128    215.313171    2.497528    -2.157073    -3.296280    0.111943    8.539794    3.665949    0.559714    8.539408    3.599458    4.691732    2.793462    -1.398124    4.691731    2.793458    -1.398123    -4.014087    -0.129291    -0.980847    -53.258026    20.186237    -22.197712    -7.697314    -4.017158    -136.585632    -3.337568    -0.389297    6.234121    47.448200    38.866398    -34.355042    -35.000027    0.000001    0.000005    -0.000000    0.000000    -0.000000    0.000003    9.999988    0.000003    -0.000000    0.000000    -0.000000    -0.000000    0.000000    -0.000000    -0.000000    0.000000    -0.000000    -0.000000    0.000000    -0.000000    -0.000000    0.000000    -0.000000    -0.000000    0.000000    -0.000000    -0.000000    0.000000    -0.000000    -0.000000    0.000000    -0.000000    -0.000003    -9.999993    -0.000000    -0.000000    0.000000    -0.000000    -0.000000    0.000000    -0.000000    0.070287    -0.276697    5.951662    45.792248    -1.629987    36.912502    -33.700493    -15.806472    83.444298    5.570706    -4.351199    -40.585121    -47.448204    38.866394    34.355045    35.000023    -0.000001    0.000005    -0.000000    0.000000    -0.000000    -0.000000    9.999993    0.000003    -0.000000    0.000000    -0.000000    -0.000000    0.000000    -0.000000    -0.000000    0.000000    -0.000000    -0.000000    0.000000    -0.000000    -0.000000    0.000000    -0.000000    -0.000000    0.000000    -0.000000    -0.000000    0.000000    -0.000000    -0.000000    0.000000    -0.000000    0.000002    -9.999996    0.000008    -0.000000    0.000000    -0.000000    -0.000000    0.000000    -0.000000    11.401154    -27.645233    -1.690396    0.000004    67.366844    -0.000004    -20.855068    -38.696999    -12.200456    0.000000    -0.568408    0.000000    -25.054546    -27.530960    -8.297599    -0.000007    68.709625    -0.000000    22.228149    -32.356007    -3.920502    -0.000000    1.036505    0.000003    
13.094325    80.850861    215.335464    2.448636    -2.222223    -3.416103    0.112375    8.544344    3.652386    0.561868    8.543953    3.585605    4.690472    2.779375    -1.326905    4.690471    2.779370    -1.326905    -4.030113    -0.114688    -0.984713    -53.305237    20.196657    -22.116545    -7.732688    -3.976435    -136.543137    -3.321116    -0.388860    6.247090    47.448219    38.866413    -34.355057    -35.000023    -0.000002    0.000004    -0.000000    0.000000    -0.000000    0.000003    9.999987    -0.000000    -0.000000    0.000000    -0.000000    -0.000000    0.000000    -0.000000    -0.000000    0.000000    -0.000000    -0.000000    0.000000    -0.000000    -0.000000    0.000000    -0.000000    -0.000000    0.000000    -0.000000    -0.000000    0.000000    -0.000000    -0.000000    0.000000    -0.000000    0.000001    -10.000002    0.000007    -0.000000    0.000000    -0.000000    -0.000000    0.000000    -0.000000    0.095657    -0.238046    5.940119    45.829128    -1.404150    36.713524    -33.488850    -15.746376    83.342468    5.498584    -4.279624    -40.507984    -47.448196    38.866394    34.355038    35.000027    0.000001    0.000002    -0.000000    0.000000    -0.000000    0.000000    9.999993    -0.000002    -0.000000    0.000000    -0.000000    -0.000000    0.000000    -0.000000    -0.000000    0.000000    -0.000000    -0.000000    0.000000    -0.000000    -0.000000    0.000000    -0.000000    -0.000000    0.000000    -0.000000    -0.000000    0.000000    -0.000000    -0.000000    0.000000    -0.000000    0.000000    -9.999991    0.000005    -0.000000    0.000000    -0.000000    -0.000000    0.000000    -0.000000    11.413395    -27.567398    -1.709480    -0.000007    67.474350    0.000007    -20.793325    -38.821262    -12.080436    -0.000000    -0.572564    -0.000001    -25.005138    -27.535433    -8.233324    0.000001    68.748543    0.000003    22.222853    -32.331490    -3.850859    -0.000000    1.045709    0.000004    
